<?xml version="1.0" encoding="UTF-8"?>
<svg id="Mask" xmlns="http://www.w3.org/2000/svg" xmlns:xlink="http://www.w3.org/1999/xlink" viewBox="0 0 1024 1024">
  <defs>
    <style>
      .cls-1 {
        fill: none;
      }

      .cls-2 {
        fill: #e6e5e3;
      }

      .cls-3 {
        fill: #5496c1;
      }

      .cls-4 {
        fill: #5597c2;
      }

      .cls-5 {
        fill: #091d29;
      }

      .cls-6 {
        fill: #a9d7e4;
      }

      .cls-7 {
        fill: #85bed5;
      }

      .cls-8, .cls-9 {
        fill: #0a1d27;
      }

      .cls-10 {
        fill: #a8d5e3;
      }

      .cls-11 {
        fill: #2f5e7e;
      }

      .cls-12 {
        fill: #091d26;
      }

      .cls-9 {
        font-family: Chalkboard-Bold, Chalkboard;
        font-size: 310px;
        font-weight: 700;
      }

      .cls-13 {
        clip-path: url(#clippath);
      }
    </style>
    <clipPath id="clippath">
      <circle class="cls-1" cx="512" cy="512" r="512"/>
    </clipPath>
  </defs>
  <g class="cls-13">
    <g>
      <rect class="cls-2" width="1024" height="1024"/>
      <g>
        <path class="cls-12" d="M476.18,464.86c54.95-6.56,120.79,4.17,176.88-.45,47.31,3.64,95.43.67,142.74,0,39.83-.56,71.49,2.34,81.8,47.44l1.42,329.74c-2.6,30.21-25.24,53.27-55.63,55.63-48.92,3.81-104.68-1.58-153.97-1.49-59.45.11-128.12,6.13-186.79,1.49-31.97-2.53-52.68-26.96-54.26-58.37-.36-7.1,1.44-12.87,1.49-19.22.62-100.55-3.41-201.51-1.42-302.25,2.31-25.19,21.97-49.44,47.75-52.52h0ZM854.24,823.69c-4.95-101.13,3.7-206.17,0-307.7-9.6-34.06-48.14-27.17-76.3-26.84-98.24,1.14-196.9,2.17-295.34,1.38-12.53,1.4-19.99,6.24-24.65,17.93-.62,1.57-3.45,9.58-3.45,10.29v271.3c3.24.87,2.32-.84,3.14-1.76,11.56-12.99,22.69-26.84,33.91-40.18,28.42-33.77,58.66-77,88.62-107.81,10.99-11.3,20.62-11.38,31.64,0,17.82,18.4,35.6,45.1,52.9,65.24,9.13,10.64,20.16,20.56,27.46,32.31,2.01.55,2.28-.55,3.44-1.33,7.71-5.25,17.53-18.6,25.37-25.46,21.53-18.87,25.89-18.37,43.95,2.81,23.17,27.17,46.3,58.29,68.68,86.54M597.34,659.54l-3.44,1.33-138.71,167.71c-1,17.9,6.82,36.01,24.42,42.79l338.28,1.11c10.93-.85,19.25-3.55,26.11-12.39l-101.03-132.66-3.47.69c-7.22,6.11-37.87,40.07-44.22,41.09-5.07.8-15.22-10.9-18.95-14.88-26.89-28.75-50.61-62.58-77.63-91.4-.82-.88-1.25-2.19-1.36-3.4h0Z"/>
        <path class="cls-3" d="M833.6,800.37c-22.39-28.26-45.51-59.37-68.68-86.54-18.05-21.17-22.41-21.66-43.95-2.81-7.84,6.86-17.64,20.2-25.37,25.46-1.16.78-1.43,1.88-3.44,1.33-7.3-11.76-18.33-21.67-27.46-32.31-17.3-20.14-35.08-46.83-52.9-65.24-11.01-11.37-20.65-11.29-31.64,0-29.96,30.81-60.2,74.06-88.62,107.81-11.22,13.32-22.36,27.18-33.91,40.18-.81.92.1,2.63-3.14,1.76v-271.3c0-.7,2.83-8.72,3.45-10.29,4.66-11.69,12.13-16.53,24.65-17.93,98.45.8,197.09-.23,295.34-1.38,28.15-.33,66.7-7.2,76.3,26.84,3.7,101.54-4.95,206.57,0,307.7M742.67,541.79c-58.77,6.71-51.58,95.92,7.78,94.43,66.62-1.66,58.15-101.97-7.78-94.43Z"/>
        <path class="cls-11" d="M597.34,659.54c.11,1.21.54,2.52,1.36,3.4,27.02,28.82,50.75,62.64,77.63,91.4,3.71,3.97,13.87,15.67,18.95,14.88,6.37-1,37-34.98,44.22-41.09l3.47-.69,101.03,132.66c-6.86,8.84-15.18,11.54-26.11,12.39l-338.28-1.11c-17.61-6.78-25.42-24.89-24.42-42.79l138.71-167.71,3.44-1.33h0Z"/>
        <path class="cls-5" d="M742.67,541.79c65.93-7.52,74.4,92.77,7.78,94.43-59.36,1.48-66.55-87.74-7.78-94.43ZM764.46,605.46c20.82-20.35-6.9-53.3-30.41-36.6-25.96,18.42,7.18,59.32,30.41,36.6Z"/>
        <path class="cls-4" d="M764.46,605.46c-23.24,22.71-56.39-18.18-30.41-36.6,23.53-16.69,51.23,16.25,30.41,36.6Z"/>
      </g>
      <g>
        <path class="cls-8" d="M187,158.59l355.41-.34c26.88,3.74,45.35,26.14,47.45,52.83v327.03c-2.17,27.62-24.1,49.1-51.51,51.51H197.57c-24.74-1.09-45.29-17.5-52.41-40.97-4.11-113.95-.63-228.74-1.76-342.99,3.37-22.99,20.56-42.62,43.62-47.05h0v-.02ZM565.08,519.5V208.36c0-5.47-8.58-16.57-13.05-19.91-15.3-11.47-40.03-5.61-57.63-5.43-90.63.89-181.47.41-272.11,0-12.03-.06-18.42-2.53-31.46,1.38-9.89,2.97-22.74,14.49-22.74,25.34v275.41c10.38-9.82,19.63-21.26,28.81-32.31,33.05-39.81,65.04-80.6,97.58-120.84,11.48-9.54,19.7-8.14,29.53,2.02,24.65,25.48,51.52,60.78,74.81,88.65,2.43,2.91,5.73,6.68,6.93,10.26l3.44-1.33,35.89-35.54c12.51-6.7,18.37-1.5,26.54,7.38M423.11,450.34c-16.84,14.05-20.95,11.1-34.57-3.62-18.47-19.96-34.79-44.45-53.53-64.6-3.12-3.36-25.16-24.98-27.31-24.61l-137.49,163.43c-7.55,19.33,7.93,42.94,28.74,43.95h333.89c4.06-.34,9.71-1.49,13.41-3.08,3.48-1.5,14.01-9.61,12.7-13.38l-103.79-128.59-3.46.69-28.6,29.82h.01Z"/>
        <path class="cls-10" d="M565.08,519.5c-1.69-.41-2.96-2.2-4.08-3.48-31.12-34.88-57.87-78.35-89.36-112.57-8.18-8.88-14.04-14.08-26.54-7.38l-35.89,35.54-3.44,1.33c-1.2-3.58-4.5-7.34-6.93-10.26-23.29-27.87-50.16-63.17-74.81-88.65-9.85-10.17-18.05-11.56-29.53-2.02-32.55,40.22-64.53,81.03-97.58,120.84-9.17,11.06-18.44,22.49-28.81,32.31V209.75c0-10.85,12.86-22.37,22.74-25.34,13.03-3.92,19.43-1.43,31.46-1.38,90.64.41,181.49.89,272.11,0,17.6-.18,42.32-6.04,57.63,5.43,4.47,3.36,13.05,14.44,13.05,19.91v311.13h-.02ZM425.45,250.75c-6.82,6.82-11.8,18.22-12.68,27.84-5.72,62.44,101.83,71.07,93.24-4.29-4.12-36.13-55.92-48.19-80.56-23.55h0Z"/>
        <path class="cls-7" d="M423.11,450.34l28.6-29.82,3.46-.69,103.79,128.59c1.31,3.75-9.23,11.87-12.7,13.38-3.68,1.59-9.35,2.74-13.41,3.08H198.96c-20.79-1-36.29-24.6-28.74-43.94l137.49-163.43c2.14-.37,24.19,21.26,27.31,24.61,18.74,20.14,35.06,44.63,53.53,64.6,13.61,14.71,17.72,17.67,34.57,3.62h-.01Z"/>
        <path d="M425.45,250.75c24.64-24.64,76.45-12.58,80.56,23.55,8.59,75.36-98.96,66.73-93.24,4.29.88-9.62,5.84-21.01,12.68-27.84ZM443.3,299.24c25.13,23.55,57.69-19.51,28.85-36.41-25.04-14.67-48.77,17.74-28.85,36.41Z"/>
        <path class="cls-6" d="M443.3,299.24c-19.92-18.66,3.81-51.08,28.85-36.41,28.85,16.9-3.71,59.95-28.85,36.41Z"/>
      </g>
    </g>
  </g>
  <text class="cls-9" transform="translate(611.15 413.03)"><tspan x="0" y="0">+</tspan></text>
</svg>